<svg id="Layer_1" data-name="Layer 1" xmlns="http://www.w3.org/2000/svg" viewBox="0 0 245.65 136.21"><g id="dekaLogoSub" fill="currentColor"><g id="deka"><path id="e" d="M99,39.79H74.63a14.06,14.06,0,0,1,1.73-4,12,12,0,0,1,2.72-3,11.83,11.83,0,0,1,3.54-1.92,12.81,12.81,0,0,1,4.16-.67q9.72,0,12.26,9.6m12.48,9.82,0-2.83q0-12.86-6.7-20.11T86.51,19.36Q75,19.36,68,26.88t-6.92,20q0,12.44,7.13,20t18.9,7.47a32.55,32.55,0,0,0,7.62-.85,23.06,23.06,0,0,0,6.53-2.7A26.33,26.33,0,0,0,107,66a36.87,36.87,0,0,0,3.47-4.42l-10.23-5.84a24.76,24.76,0,0,1-5.12,5.64,12.51,12.51,0,0,1-7.5,2.14A12.87,12.87,0,0,1,78,59.79a15.65,15.65,0,0,1-4.22-10.18Z"></path><path id="a" d="M131,108.81q0,7.95-3.78,12.56a12.72,12.72,0,0,1-10.39,4.6q-6.72,0-10.44-4.6t-3.72-12.56q0-8,3.72-12.61t10.45-4.65a12.61,12.61,0,0,1,10.38,4.65q3.78,4.65,3.78,12.61m12.3,25.84V83h-9.1l-2.07,6h-.21a24.36,24.36,0,0,0-7.8-5.69A24.06,24.06,0,0,0,97.25,89q-6.93,7.59-6.93,19.17v1.86q0,11.48,7,18.82a22.71,22.71,0,0,0,17.11,7.34,23.83,23.83,0,0,0,9.92-2,16.87,16.87,0,0,0,7-5.79h.21l2,6.2Z"></path><path id="d" d="M40.93,46.76q0,8-3.77,12.55a12.67,12.67,0,0,1-10.39,4.6q-6.72,0-10.44-4.6T12.61,46.76q0-8,3.72-12.62t10.44-4.65a12.65,12.65,0,0,1,10.39,4.65q3.78,4.66,3.77,12.61M53.23,72.6V.24H40.73V25.05h-.21a16.52,16.52,0,0,0-6.36-4.29,24.79,24.79,0,0,0-8.83-1.4q-11.17,0-18.25,7.49T0,46.13v2Q0,59.36,7.13,66.81a23,23,0,0,0,17.16,7.44,25.9,25.9,0,0,0,10.08-1.81,15,15,0,0,0,7-6h.2l2,6.19Z"></path><path id="k" d="M68.81,108.49l22.11-24V82.94H76.44L58.08,102.56H53.13V82.93H40.83v51.72h12.3V114.87h5.38L77,134.65H91.5V133.1Z"></path></g><g id="subline"><path id="Pfad_521" data-name="Pfad 521" d="M150,18.69a5.52,5.52,0,0,1-4.12-1.89h-.08l-.48,1.48h-1.64V.38H146V7h.05a5.28,5.28,0,0,1,4.3-1.87c3,0,6,2.25,6,6.5V12C156.42,15.88,154.14,18.69,150,18.69Zm4-6.8c0-2.64-1.3-4.78-4.12-4.78s-4,2.2-4,4.78,1.2,4.83,4,4.83,4.12-2.12,4.12-4.83Zm7.76,6.39h-2.32V5.5h1.56l.59,2.25h.05a3.81,3.81,0,0,1,3.75-2.36l.8.05v2.3h-.72c-3.42,0-3.71,2.15-3.71,4.45ZM180.37,5.5V18.28h-1.74l-.48-1.53h-.05a5.08,5.08,0,0,1-4.25,1.94,6.17,6.17,0,0,1-5.93-6.4v-.56c0-3.75,2.38-6.64,6.26-6.64a5.17,5.17,0,0,1,4,1.89h.08l.49-1.48Zm-2.25,6.39c0-2.53-1.17-4.83-3.91-4.83s-3.94,2.22-3.94,4.85,1.36,4.78,3.94,4.78,3.91-2.27,3.91-4.8Zm8.26,6.39h-2.33V5.5h1.74l.46,1.5h.05a5,5,0,0,1,7.36-.53,5,5,0,0,1,1.18,3.6v8.2h-2.3v-7.8a3.32,3.32,0,0,0-.74-2.55,3,3,0,0,0-2.17-.77,3.21,3.21,0,0,0-2.53,1,3.72,3.72,0,0,0-.72,2.63ZM204.12,5.11a4.82,4.82,0,0,1,4,1.72h0V.38h2.33v17.9h-1.74l-.48-1.53h-.06a5.26,5.26,0,0,1-4.37,1.94,6.09,6.09,0,0,1-6.08-6.09c0-.14,0-.27,0-.4v-.39c0-3.83,2.33-6.7,6.37-6.7Zm-4,6.8c0,2.64,1.3,4.78,4.11,4.78s4-2.2,4-4.78-1.2-4.83-4-4.83-4.11,2.12-4.11,4.83ZM217,1.56a1.67,1.67,0,0,1-3.32,0V1.48a1.67,1.67,0,0,1,3.32,0Zm-2.83,16.72V5.5h2.32V18.28Zm8.27,0h-2.33V5.5h1.74l.46,1.5h.05a4.64,4.64,0,0,1,3.76-1.89,4.69,4.69,0,0,1,3.6,1.36,5,5,0,0,1,1.18,3.6v8.2h-2.3v-7.8a3.36,3.36,0,0,0-.74-2.55,3,3,0,0,0-2.18-.77,3.22,3.22,0,0,0-2.53,1,3.76,3.76,0,0,0-.71,2.63Zm16.9,5c-2.89,0-6-1-6-3.42v-.15A3.13,3.13,0,0,1,235,16.92a2.79,2.79,0,0,1-.87-1.91,2.63,2.63,0,0,1,1.33-2.28,3.79,3.79,0,0,1-1.28-3V9.41c0-2.89,2.3-4.32,5.21-4.32a7.17,7.17,0,0,1,1.9.23l2-2.4h2.28v.33l-2.48,2.94a3.9,3.9,0,0,1,1.48,3.22v.31c0,2.78-2.38,4.19-5.32,4.19a7.44,7.44,0,0,1-2.3-.33,1.28,1.28,0,0,0-.77,1.15,1.16,1.16,0,0,0,1.08,1.21h3.91c2.45,0,4.4,1.2,4.4,3.2v.18c0,2.7-3.35,4-6.35,4Zm4-4c0-.82-.72-1.33-2.28-1.33h-4.19a1.75,1.75,0,0,0-1.23,1.63c0,1.1,1.28,1.77,3.79,1.77,2.3,0,3.91-.67,3.91-2.07Zm-6.83-9.75c0,1.67,1.15,2.54,2.94,2.54s2.94-.87,2.94-2.54S241.27,7,239.43,7s-2.94.92-2.94,2.53Z"></path><path id="Pfad_522" data-name="Pfad 522" d="M143,33.54v-.2h2.23c0,1.69,1,2.56,2.94,2.56,1.71,0,2.58-.72,2.58-1.89a1.62,1.62,0,0,0-.49-1.23c-1.22-1.23-4.47-.85-6.13-2.51a3.25,3.25,0,0,1-.92-2.22v-.18c0-2.58,2.3-3.66,4.65-3.66,2.51,0,4.65,1.15,4.68,3.58V28h-2.22c-.08-1.48-1.05-2-2.54-2s-2.27.67-2.27,1.61a1.54,1.54,0,0,0,.46,1.13c1.17,1.18,4.42.77,6.13,2.48a3.3,3.3,0,0,1,.92,2.53c0,2.92-2.48,4-4.83,4C145.12,37.76,143.13,36.35,143,33.54Zm19.42,4.22a4.86,4.86,0,0,1-4-1.71h-.05V42H156.1V24.59h1.73l.49,1.54h.05a5.3,5.3,0,0,1,4.37-1.95,6.09,6.09,0,0,1,6.07,6.1c0,.13,0,.26,0,.4v.38C168.8,34.9,166.48,37.76,162.44,37.76Zm4-6.8c0-2.63-1.3-4.78-4.12-4.78s-4,2.2-4,4.78,1.2,4.83,4,4.83,4.12-2.12,4.12-4.83Zm17.27-6.37V37.38H182l-.49-1.54h-.05a5,5,0,0,1-4.25,1.95,6.17,6.17,0,0,1-5.93-6.4v-.56c0-3.76,2.38-6.64,6.27-6.64a5.17,5.17,0,0,1,4,1.89h.08l.49-1.49ZM181.47,31c0-2.54-1.17-4.84-3.91-4.84s-3.94,2.23-3.94,4.86,1.36,4.78,3.94,4.78,3.91-2.27,3.91-4.81Zm5.32-.18a6.28,6.28,0,0,1,6-6.6c.14,0,.28,0,.41,0,3,0,5.35,1.63,5.68,4.6V29h-2.12a3.18,3.18,0,0,0-3.47-2.85h0c-2.46,0-4.07,2.07-4.07,4.83s1.56,4.78,4,4.78c2.05,0,3.3-.92,3.6-2.84h2.15v.2c-.33,2.82-2.66,4.63-5.75,4.63-3.74,0-6.34-2.76-6.34-6.62Zm26,3c-.61,2.55-2.74,4-5.55,4-3.55,0-6.13-2.64-6.13-6.63v-.35c0-3.94,2.48-6.6,6.06-6.6,3.81,0,5.83,2.94,5.83,6.54,0,.36,0,.56,0,.95h-9.49c.2,2.35,1.46,4.09,3.81,4.09a3.07,3.07,0,0,0,3.2-2Zm-5.55-7.62c-2.25,0-3.37,1.46-3.7,3.6h7.08c-.16-1.74-1.1-3.6-3.38-3.6Zm8.1,7.36v-.2h2.23c0,1.69,1,2.56,2.94,2.56,1.71,0,2.58-.72,2.58-1.89a1.62,1.62,0,0,0-.49-1.23c-1.22-1.23-4.47-.84-6.13-2.51a3.25,3.25,0,0,1-.92-2.22v-.18c0-2.58,2.3-3.66,4.65-3.66,2.51,0,4.65,1.15,4.68,3.58V28h-2.23c-.07-1.48-1-2-2.53-2s-2.27.67-2.27,1.62a1.53,1.53,0,0,0,.46,1.12c1.17,1.18,4.42.77,6.13,2.48a3.31,3.31,0,0,1,.92,2.53c0,2.92-2.48,4-4.83,4-3.09,0-5.08-1.41-5.18-4.22Z"></path></g></g></svg>
